<?xml version="1.0" encoding="UTF-8" standalone="no"?>
<!-- HFXT logo (light backgrounds): T-Rex emblem + navy HFXT wordmark. -->
<svg xmlns="http://www.w3.org/2000/svg" version="1.1"
     viewBox="0 0 286 100" width="286" height="100">
    <defs>
        <radialGradient id="amber" cx="50%" cy="38%" r="72%">
            <stop offset="0%" stop-color="#F9CB76"/>
            <stop offset="58%" stop-color="#F0AD44"/>
            <stop offset="100%" stop-color="#E2952F"/>
        </radialGradient>
    </defs>

    <!-- ===== Emblem ===== -->
    <circle cx="50" cy="50" r="47" fill="url(#amber)"/>
    <g transform="translate(47,50) scale(0.9) translate(-50.5,-47)" fill="#0E3A5A">
        <path d="M 10 36
                 C 20 32 28 34 34 38
                 C 40 40 44 36 48 34
                 C 52 32 55 30 58 30
                 C 62 28 64 24 66 20
                 C 70 16 72 14 76 16
                 C 80 17 86 19 91 22
                 C 86 26 81 29 76 30
                 C 74 32 72 35 70 38
                 C 68 40 66 42 64 44
                 C 62 48 60 51 58 54
                 C 56 60 55 63 54 66
                 L 56 78
                 L 62 80
                 L 58 80
                 L 52 78
                 C 50 74 49 71 48 68
                 C 46 64 45 60 44 56
                 C 42 54 41 54 40 54
                 C 36 52 32 50 28 48
                 C 22 44 16 40 10 36 Z"/>
        <path d="M 76 30
                 C 81 32 86 34 90 37
                 C 84 38 77 39 70 39 Z"/>
        <path d="M 60 45
                 L 64 46
                 L 67 54
                 L 71 61
                 L 69 62
                 L 66 56
                 L 64 61
                 L 62 60
                 L 63 53
                 L 59 49 Z"/>
        <path d="M 86 23.5 L 88 23.5 L 87 26.5 Z
                 M 82 25.7 L 84 25.7 L 83 28.7 Z
                 M 78 27.8 L 80 27.8 L 79 30.8 Z" fill="#FFFFFF"/>
        <path d="M 79 33 L 81 33 L 80 30 Z
                 M 83 35 L 85 35 L 84 32 Z
                 M 87 36.5 L 89 36.5 L 88 33.5 Z" fill="#FFFFFF"/>
        <circle cx="74" cy="20" r="2.2" fill="#FFFFFF"/>
    </g>

    <!-- ===== HFXT wordmark (navy, for light backgrounds) ===== -->
    <g transform="translate(112,10)" fill="#0E3A5A">
        <path d="M0 16 H9 V36 H27 V16 H36 V64 H27 V45 H9 V64 H0 Z"/>
        <path d="M44 16 H77 V25 H53 V36 H71 V45 H53 V64 H44 Z"/>
        <path d="M81.6 21.9 L117.6 63.9 L124.4 58.1 L88.4 16.1 Z
                 M124.4 21.9 L88.4 63.9 L81.6 58.1 L117.6 16.1 Z"/>
        <path d="M129 16 H162 V25 H150 V64 H141 V25 H129 Z"/>
    </g>
</svg>
