<svg xmlns="http://www.w3.org/2000/svg" width="24" height="24" viewBox="0 0 1024 1024">
<path fill="#0E3A5A" d="M698.22 680.665l8.882 36.354c2.228 9.12-3.36 18.32-12.48 20.549-9.12 2.228-18.32-3.36-20.549-12.48l-8.881-36.354-28.143-115.193a17 17 0 0 1 5.338-16.844C677.857 525.751 698 481.47 698 434.325 698 344.829 625.243 272 535.854 272c-89.388 0-162.14 72.827-162.14 162.325 0 1.93 0.034 3.824 0.108 5.779a17 17 0 0 1-0.108 2.666v20.9a17 17 0 0 1-1.792 7.597l-41.177 82.438 31.35 10.46a17 17 0 0 1 11.619 16.126v70.941h93.328a17 17 0 0 1 16.726 13.961L496.814 737h145.638c9.388 0 17 7.611 17 17s-7.612 17-17 17H489.127c-11.984 0-22.24-8.568-24.393-20.364l-11.882-65.404H364.5c-13.69 0-24.786-11.107-24.786-24.795V592.54l-29.788-9.94c-14.238-4.75-21.042-21.174-14.332-34.609l44.12-88.33v-17.535c0-0.698 0.029-1.392 0.087-2.08-0.06-1.922-0.087-3.812-0.087-5.721C339.714 326.057 427.68 238 535.854 238 644.028 238 732 326.058 732 434.325c0 53.456-21.476 103.964-59.542 140.89l25.763 105.45z"></path>
<path fill="#0E3A5A" d="M577.59 317.087c20.415-4.792 40.467-1.29 57.32 10.151 35.905 24.395 46.4 76.295 25.219 118.512-15.683 31.266-40.226 56.058-69.972 75.183a239.077 239.077 0 0 1-30.923 16.818 197.214 197.214 0 0 1-10.062 4.222c-2.048 0.79-3.676 1.372-4.826 1.755a24.83 24.83 0 0 1-15.676 0.006 116.274 116.274 0 0 1-5.193-1.896 200.934 200.934 0 0 1-10.833-4.595 239.346 239.346 0 0 1-33.036-18.427c-7.813-5.207-9.927-15.761-4.72-23.574 5.206-7.813 15.76-9.927 23.573-4.72a205.543 205.543 0 0 0 28.33 15.804 167.072 167.072 0 0 0 8.991 3.817c0.86 0.221 1.006 0.165 1.157 0.107 2.48-0.957 5.271-2.119 8.319-3.493a205.258 205.258 0 0 0 26.511-14.423c24.996-16.07 45.31-36.591 57.97-61.83 13.867-27.641 7.16-60.808-13.933-75.14-8.875-6.025-19.171-7.823-30.444-5.177-11.87 2.788-24.268 10.36-36.838 22.932-6.64 6.64-17.404 6.64-24.043 0-12.568-12.569-24.972-20.143-36.841-22.932-11.282-2.648-21.575-0.851-30.443 5.174-21.099 14.335-27.804 47.502-13.929 75.148 4.652 9.28 10.381 17.975 17.077 26.092 5.974 7.242 4.947 17.957-2.296 23.932-7.242 5.974-17.957 4.947-23.932-2.296-8.283-10.042-15.418-20.87-21.24-32.484-21.188-42.217-10.695-94.119 25.213-118.515 16.844-11.444 36.898-14.944 57.322-10.15 14.177 3.33 27.917 10.465 41.09 21.127 13.172-10.663 26.909-17.797 41.087-21.128z m-38.251 194.364a29.585 29.585 0 0 0 0.028 0.01l-0.028-0.01z"></path>
</svg>